mastitorrents.com
 
http://mastitorrents.com/forums/index.php

MEDIA INFORMATION

General
Format : Matroska
Format version : Version 2
File size : 862 MiB
Duration : 1h 20mn
Overall bit rate : 1 498 Kbps
Movie name : When a Stranger Calls 2006 BRRip 720p Dual Audio [Hin-Eng]
Encoded date : UTC 2011-08-06 15:51:00
Writing application : mkvmerge v4.7.0 ('Just Like You Imagined') built on Apr 21 2011 01:13:14
Writing library : libebml v1.2.0 + libmatroska v1.1.0

Video
ID : 1
Format : AVC
Format/Info : Advanced Video Codec
Format profile : High@L4.0
Format settings, CABAC : Yes
Format settings, ReFrames : 3 frames
Format settings, GOP : M=1, N=54
Muxing mode : Header stripping
Codec ID : V_MPEG4/ISO/AVC
Duration : 1h 20mn
Bit rate : 1 276 Kbps
Width : 1 280 pixels
Height : 532 pixels
Display aspect ratio : 2.40:1
Frame rate : 25.000 fps
Original frame rate : 23.976 fps
Color space : YUV
Chroma subsampling : 4:2:0
Bit depth : 8 bits
Scan type : Progressive
Bits/(Pixel*Frame) : 0.075
Stream size : 735 MiB (85%)
Title : imkhan
Language : Hindi

Audio #1
ID : 2
Format : MPEG Audio
Format version : Version 1
Format profile : Layer 3
Mode : Joint stereo
Mode extension : MS Stereo
Muxing mode : Header stripping
Codec ID : A_MPEG/L3
Codec ID/Hint : MP3
Duration : 1h 20mn
Bit rate mode : Constant
Bit rate : 96.0 Kbps
Channel(s) : 2 channels
Sampling rate : 44.1 KHz
Compression mode : Lossy
Delay relative to video : -798ms
Stream size : 55.3 MiB (6%)
Title : imkhan
Language : Hindi

Audio #2
ID : 3
Format : MPEG Audio
Format version : Version 1
Format profile : Layer 3
Mode : Joint stereo
Mode extension : MS Stereo
Muxing mode : Header stripping
Codec ID : A_MPEG/L3
Codec ID/Hint : MP3
Duration : 1h 20mn
Bit rate mode : Constant
Bit rate : 96.0 Kbps
Channel(s) : 2 channels
Sampling rate : 44.1 KHz
Compression mode : Lossy
Delay relative to video : 6ms
Stream size : 55.3 MiB (6%)
Title : imkhan
Language : English